<mxfile host="app.diagrams.net" agent="Mozilla/5.0 (Windows NT 10.0; Win64; x64) AppleWebKit/537.36 (KHTML, like Gecko) Chrome/131.0.0.0 Safari/537.36" version="24.9.3">
  <diagram name="Page-1" id="f1wMGk_wxyHmaLdVLJDL">
    <mxGraphModel dx="1487" dy="332" grid="1" gridSize="10" guides="1" tooltips="1" connect="1" arrows="1" fold="1" page="1" pageScale="1" pageWidth="850" pageHeight="1100" math="0" shadow="0">
      <root>
        <mxCell id="0" />
        <mxCell id="1" parent="0" />
        <mxCell id="Dd4lVPITV6rcG0dg7MI0-1" value="BATERIA" style="rounded=0;whiteSpace=wrap;html=1;fillColor=#33FF33;" parent="1" vertex="1">
          <mxGeometry x="810" y="220" width="120" height="60" as="geometry" />
        </mxCell>
        <mxCell id="Dd4lVPITV6rcG0dg7MI0-2" value="" style="rounded=0;whiteSpace=wrap;html=1;" parent="1" vertex="1">
          <mxGeometry x="810" y="190" width="30" height="30" as="geometry" />
        </mxCell>
        <mxCell id="Dd4lVPITV6rcG0dg7MI0-3" value="" style="rounded=0;whiteSpace=wrap;html=1;" parent="1" vertex="1">
          <mxGeometry x="900" y="190" width="30" height="30" as="geometry" />
        </mxCell>
        <mxCell id="Dd4lVPITV6rcG0dg7MI0-5" value="" style="endArrow=classic;html=1;rounded=0;entryX=0.5;entryY=0;entryDx=0;entryDy=0;entryPerimeter=0;exitX=0.5;exitY=0;exitDx=0;exitDy=0;" parent="1" source="Dd4lVPITV6rcG0dg7MI0-3" target="Dd4lVPITV6rcG0dg7MI0-6" edge="1">
          <mxGeometry width="50" height="50" relative="1" as="geometry">
            <mxPoint x="700" y="410" as="sourcePoint" />
            <mxPoint x="750" y="360" as="targetPoint" />
            <Array as="points">
              <mxPoint x="915" y="150" />
              <mxPoint x="1003" y="150" />
            </Array>
          </mxGeometry>
        </mxCell>
        <mxCell id="Dd4lVPITV6rcG0dg7MI0-6" value="" style="pointerEvents=1;verticalLabelPosition=bottom;shadow=0;dashed=0;align=center;html=1;verticalAlign=top;shape=mxgraph.electrical.signal_sources.signal_ground;" parent="1" vertex="1">
          <mxGeometry x="980" y="235" width="45" height="30" as="geometry" />
        </mxCell>
        <mxCell id="Dd4lVPITV6rcG0dg7MI0-7" value="&lt;font style=&quot;font-size: 22px;&quot;&gt;PDM&lt;/font&gt;" style="rounded=1;whiteSpace=wrap;html=1;fillColor=#FF6666;" parent="1" vertex="1">
          <mxGeometry x="230" y="190" width="185" height="80" as="geometry" />
        </mxCell>
        <mxCell id="Dd4lVPITV6rcG0dg7MI0-8" value="" style="endArrow=classic;html=1;rounded=0;exitX=0.5;exitY=0;exitDx=0;exitDy=0;entryX=0.639;entryY=-0.016;entryDx=0;entryDy=0;entryPerimeter=0;strokeColor=#FF0000;" parent="1" source="Dd4lVPITV6rcG0dg7MI0-2" target="Dd4lVPITV6rcG0dg7MI0-7" edge="1">
          <mxGeometry width="50" height="50" relative="1" as="geometry">
            <mxPoint x="540" y="280" as="sourcePoint" />
            <mxPoint x="590" y="230" as="targetPoint" />
            <Array as="points">
              <mxPoint x="825" y="80" />
              <mxPoint x="350" y="80" />
            </Array>
          </mxGeometry>
        </mxCell>
        <mxCell id="Dd4lVPITV6rcG0dg7MI0-9" value="AIM EVO 4" style="rounded=1;whiteSpace=wrap;html=1;fillColor=#dae8fc;strokeColor=#6c8ebf;" parent="1" vertex="1">
          <mxGeometry x="760" y="870" width="120" height="60" as="geometry" />
        </mxCell>
        <mxCell id="znyflTCA9Cc_OiiJNhQR-1" value="" style="edgeStyle=orthogonalEdgeStyle;rounded=0;orthogonalLoop=1;jettySize=auto;html=1;" edge="1" parent="1" source="Dd4lVPITV6rcG0dg7MI0-10" target="Dd4lVPITV6rcG0dg7MI0-11">
          <mxGeometry relative="1" as="geometry" />
        </mxCell>
        <mxCell id="Dd4lVPITV6rcG0dg7MI0-10" value="&lt;font style=&quot;font-size: 22px;&quot;&gt;MS3 PRO&lt;/font&gt;" style="rounded=1;whiteSpace=wrap;html=1;fillColor=#dae8fc;strokeColor=#6c8ebf;" parent="1" vertex="1">
          <mxGeometry x="208.75" y="840" width="230" height="110" as="geometry" />
        </mxCell>
        <mxCell id="Dd4lVPITV6rcG0dg7MI0-11" value="&lt;font style=&quot;font-size: 32px;&quot;&gt;Cirucular Sensores Vitais&lt;/font&gt;" style="ellipse;whiteSpace=wrap;html=1;fillColor=#CCCCCC;" parent="1" vertex="1">
          <mxGeometry x="90" y="440" width="467.5" height="285" as="geometry" />
        </mxCell>
        <mxCell id="Dd4lVPITV6rcG0dg7MI0-21" value="CKP" style="rounded=0;whiteSpace=wrap;html=1;fillColor=#d5e8d4;strokeColor=#82b366;" parent="1" vertex="1">
          <mxGeometry x="-230" y="300" width="70" height="30" as="geometry" />
        </mxCell>
        <mxCell id="Dd4lVPITV6rcG0dg7MI0-22" value="CLT" style="rounded=0;whiteSpace=wrap;html=1;fillColor=#d5e8d4;strokeColor=#82b366;" parent="1" vertex="1">
          <mxGeometry x="-230" y="340" width="70" height="30" as="geometry" />
        </mxCell>
        <mxCell id="Dd4lVPITV6rcG0dg7MI0-23" value="TRIPLEX(tps map iat)" style="rounded=0;whiteSpace=wrap;html=1;fillColor=#d5e8d4;strokeColor=#82b366;" parent="1" vertex="1">
          <mxGeometry x="-230" y="380" width="70" height="50" as="geometry" />
        </mxCell>
        <mxCell id="Dd4lVPITV6rcG0dg7MI0-24" value="FPS" style="rounded=0;whiteSpace=wrap;html=1;fillColor=#d5e8d4;strokeColor=#82b366;" parent="1" vertex="1">
          <mxGeometry x="-230" y="440" width="70" height="30" as="geometry" />
        </mxCell>
        <mxCell id="Dd4lVPITV6rcG0dg7MI0-25" value="OTS" style="rounded=0;whiteSpace=wrap;html=1;fillColor=#d5e8d4;strokeColor=#82b366;" parent="1" vertex="1">
          <mxGeometry x="-230" y="480" width="70" height="30" as="geometry" />
        </mxCell>
        <mxCell id="Dd4lVPITV6rcG0dg7MI0-26" value="OPS" style="rounded=0;whiteSpace=wrap;html=1;fillColor=#d5e8d4;strokeColor=#82b366;" parent="1" vertex="1">
          <mxGeometry x="-230" y="520" width="70" height="30" as="geometry" />
        </mxCell>
        <mxCell id="Dd4lVPITV6rcG0dg7MI0-30" value="MAQ" style="rounded=0;whiteSpace=wrap;html=1;" parent="1" vertex="1">
          <mxGeometry x="-240" y="840" width="80" height="40" as="geometry" />
        </mxCell>
        <mxCell id="Dd4lVPITV6rcG0dg7MI0-33" value="CMP" style="rounded=0;whiteSpace=wrap;html=1;fillColor=#d5e8d4;strokeColor=#82b366;" parent="1" vertex="1">
          <mxGeometry x="690" y="370" width="70" height="30" as="geometry" />
        </mxCell>
        <mxCell id="Dd4lVPITV6rcG0dg7MI0-38" value="Lambda" style="rounded=0;whiteSpace=wrap;html=1;fillColor=#d5e8d4;strokeColor=#82b366;" parent="1" vertex="1">
          <mxGeometry x="680" y="660" width="80" height="40" as="geometry" />
        </mxCell>
        <mxCell id="Dd4lVPITV6rcG0dg7MI0-41" value="" style="endArrow=classic;startArrow=classic;html=1;rounded=0;exitX=0;exitY=0.5;exitDx=0;exitDy=0;entryX=0.25;entryY=1;entryDx=0;entryDy=0;strokeWidth=3;strokeColor=#FF8000;" parent="1" source="Dd4lVPITV6rcG0dg7MI0-7" target="Dd4lVPITV6rcG0dg7MI0-9" edge="1">
          <mxGeometry width="50" height="50" relative="1" as="geometry">
            <mxPoint x="470" y="580" as="sourcePoint" />
            <mxPoint x="520" y="530" as="targetPoint" />
            <Array as="points">
              <mxPoint x="-320" y="230" />
              <mxPoint x="-320" y="980" />
              <mxPoint x="790" y="980" />
            </Array>
          </mxGeometry>
        </mxCell>
        <mxCell id="Dd4lVPITV6rcG0dg7MI0-42" value="" style="endArrow=classic;startArrow=classic;html=1;rounded=0;exitX=0;exitY=0.75;exitDx=0;exitDy=0;entryX=0.5;entryY=1;entryDx=0;entryDy=0;strokeColor=#00CC00;strokeWidth=3;" parent="1" source="Dd4lVPITV6rcG0dg7MI0-7" target="Dd4lVPITV6rcG0dg7MI0-9" edge="1">
          <mxGeometry width="50" height="50" relative="1" as="geometry">
            <mxPoint x="470" y="580" as="sourcePoint" />
            <mxPoint x="520" y="530" as="targetPoint" />
            <Array as="points">
              <mxPoint x="-280" y="250" />
              <mxPoint x="-280" y="1010" />
              <mxPoint x="820" y="1010" />
            </Array>
          </mxGeometry>
        </mxCell>
        <mxCell id="Dd4lVPITV6rcG0dg7MI0-43" value="" style="endArrow=classic;startArrow=classic;html=1;rounded=0;entryX=0.138;entryY=0.98;entryDx=0;entryDy=0;entryPerimeter=0;strokeWidth=2;strokeColor=#FF8000;" parent="1" target="Dd4lVPITV6rcG0dg7MI0-10" edge="1">
          <mxGeometry width="50" height="50" relative="1" as="geometry">
            <mxPoint x="240" y="980" as="sourcePoint" />
            <mxPoint x="450" y="780" as="targetPoint" />
          </mxGeometry>
        </mxCell>
        <mxCell id="Dd4lVPITV6rcG0dg7MI0-44" value="" style="endArrow=classic;startArrow=classic;html=1;rounded=0;exitX=0.5;exitY=1;exitDx=0;exitDy=0;strokeColor=#00CC00;strokeWidth=2;" parent="1" source="Dd4lVPITV6rcG0dg7MI0-10" edge="1">
          <mxGeometry width="50" height="50" relative="1" as="geometry">
            <mxPoint x="400" y="830" as="sourcePoint" />
            <mxPoint x="324" y="1010" as="targetPoint" />
          </mxGeometry>
        </mxCell>
        <mxCell id="Dd4lVPITV6rcG0dg7MI0-47" value="" style="endArrow=classic;startArrow=classic;html=1;rounded=0;strokeWidth=2;entryX=0;entryY=0.75;entryDx=0;entryDy=0;strokeColor=#00CC00;" parent="1" edge="1">
          <mxGeometry width="50" height="50" relative="1" as="geometry">
            <mxPoint x="-280" y="870" as="sourcePoint" />
            <mxPoint x="-240" y="870" as="targetPoint" />
            <Array as="points" />
          </mxGeometry>
        </mxCell>
        <mxCell id="Dd4lVPITV6rcG0dg7MI0-48" value="" style="endArrow=classic;startArrow=classic;html=1;rounded=0;entryX=0;entryY=0.25;entryDx=0;entryDy=0;strokeWidth=2;strokeColor=#FF8000;" parent="1" edge="1">
          <mxGeometry width="50" height="50" relative="1" as="geometry">
            <mxPoint x="-320" y="850" as="sourcePoint" />
            <mxPoint x="-240" y="850" as="targetPoint" />
            <Array as="points" />
          </mxGeometry>
        </mxCell>
        <mxCell id="Dd4lVPITV6rcG0dg7MI0-49" value="" style="pointerEvents=1;verticalLabelPosition=bottom;shadow=0;dashed=0;align=center;html=1;verticalAlign=top;shape=mxgraph.electrical.signal_sources.signal_ground;" parent="1" vertex="1">
          <mxGeometry x="-100" y="940" width="40" height="30" as="geometry" />
        </mxCell>
        <mxCell id="Dd4lVPITV6rcG0dg7MI0-52" value="" style="endArrow=classic;html=1;rounded=0;entryX=1;entryY=0.25;entryDx=0;entryDy=0;" parent="1" target="Dd4lVPITV6rcG0dg7MI0-30" edge="1">
          <mxGeometry width="50" height="50" relative="1" as="geometry">
            <mxPoint x="-80" y="850" as="sourcePoint" />
            <mxPoint x="-70" y="810" as="targetPoint" />
          </mxGeometry>
        </mxCell>
        <mxCell id="f9RRP8ZeH6I90ZZNOrHk-1" value="" style="endArrow=none;html=1;rounded=0;exitX=1;exitY=0.5;exitDx=0;exitDy=0;entryX=1.005;entryY=0.832;entryDx=0;entryDy=0;entryPerimeter=0;" parent="1" source="Dd4lVPITV6rcG0dg7MI0-38" target="Dd4lVPITV6rcG0dg7MI0-9" edge="1">
          <mxGeometry width="50" height="50" relative="1" as="geometry">
            <mxPoint x="290" y="710" as="sourcePoint" />
            <mxPoint x="340" y="660" as="targetPoint" />
            <Array as="points">
              <mxPoint x="970" y="680" />
              <mxPoint x="970" y="920" />
            </Array>
          </mxGeometry>
        </mxCell>
        <mxCell id="f9RRP8ZeH6I90ZZNOrHk-2" value="" style="endArrow=classic;html=1;rounded=0;" parent="1" edge="1">
          <mxGeometry width="50" height="50" relative="1" as="geometry">
            <mxPoint x="920" y="920" as="sourcePoint" />
            <mxPoint x="920" y="980" as="targetPoint" />
          </mxGeometry>
        </mxCell>
        <mxCell id="f9RRP8ZeH6I90ZZNOrHk-3" value="" style="pointerEvents=1;verticalLabelPosition=bottom;shadow=0;dashed=0;align=center;html=1;verticalAlign=top;shape=mxgraph.electrical.signal_sources.signal_ground;" parent="1" vertex="1">
          <mxGeometry x="900" y="980" width="40" height="30" as="geometry" />
        </mxCell>
        <mxCell id="f9RRP8ZeH6I90ZZNOrHk-12" value="" style="endArrow=classic;html=1;rounded=0;exitX=0;exitY=0.25;exitDx=0;exitDy=0;entryX=0.292;entryY=1.024;entryDx=0;entryDy=0;entryPerimeter=0;strokeColor=#FF0000;" parent="1" source="Dd4lVPITV6rcG0dg7MI0-7" target="Dd4lVPITV6rcG0dg7MI0-10" edge="1">
          <mxGeometry width="50" height="50" relative="1" as="geometry">
            <mxPoint x="110" y="440" as="sourcePoint" />
            <mxPoint x="160" y="390" as="targetPoint" />
            <Array as="points">
              <mxPoint x="-360" y="210" />
              <mxPoint x="-360" y="1040" />
              <mxPoint x="276" y="1040" />
            </Array>
          </mxGeometry>
        </mxCell>
        <mxCell id="f9RRP8ZeH6I90ZZNOrHk-13" value="" style="endArrow=classic;html=1;rounded=0;entryX=0.289;entryY=0.947;entryDx=0;entryDy=0;entryPerimeter=0;exitX=0.071;exitY=0;exitDx=0;exitDy=0;exitPerimeter=0;strokeColor=#FF33FF;" parent="1" source="Dd4lVPITV6rcG0dg7MI0-10" target="Dd4lVPITV6rcG0dg7MI0-11" edge="1">
          <mxGeometry width="50" height="50" relative="1" as="geometry">
            <mxPoint x="250" y="840" as="sourcePoint" />
            <mxPoint x="300" y="790" as="targetPoint" />
          </mxGeometry>
        </mxCell>
        <mxCell id="f9RRP8ZeH6I90ZZNOrHk-14" value="" style="endArrow=classic;html=1;rounded=0;entryX=0.321;entryY=0.967;entryDx=0;entryDy=0;entryPerimeter=0;strokeColor=#3333FF;" parent="1" target="Dd4lVPITV6rcG0dg7MI0-11" edge="1">
          <mxGeometry width="50" height="50" relative="1" as="geometry">
            <mxPoint x="240.11" y="840" as="sourcePoint" />
            <mxPoint x="240" y="720" as="targetPoint" />
          </mxGeometry>
        </mxCell>
        <mxCell id="f9RRP8ZeH6I90ZZNOrHk-15" value="" style="endArrow=classic;html=1;rounded=0;entryX=0.343;entryY=0.974;entryDx=0;entryDy=0;entryPerimeter=0;strokeColor=#3333FF;" parent="1" target="Dd4lVPITV6rcG0dg7MI0-11" edge="1">
          <mxGeometry width="50" height="50" relative="1" as="geometry">
            <mxPoint x="250.11" y="840" as="sourcePoint" />
            <mxPoint x="250" y="720" as="targetPoint" />
          </mxGeometry>
        </mxCell>
        <mxCell id="f9RRP8ZeH6I90ZZNOrHk-61" value="" style="endArrow=classic;html=1;rounded=0;exitX=0.5;exitY=1;exitDx=0;exitDy=0;entryX=0.5;entryY=0;entryDx=0;entryDy=0;strokeWidth=9;strokeColor=#CCCC00;" parent="1" source="Dd4lVPITV6rcG0dg7MI0-11" target="Dd4lVPITV6rcG0dg7MI0-10" edge="1">
          <mxGeometry width="50" height="50" relative="1" as="geometry">
            <mxPoint x="370" y="650" as="sourcePoint" />
            <mxPoint x="420" y="600" as="targetPoint" />
          </mxGeometry>
        </mxCell>
        <mxCell id="f9RRP8ZeH6I90ZZNOrHk-64" value="" style="shape=table;startSize=0;container=1;collapsible=0;childLayout=tableLayout;" parent="1" vertex="1">
          <mxGeometry x="1160" y="80" width="310" height="450" as="geometry" />
        </mxCell>
        <mxCell id="f9RRP8ZeH6I90ZZNOrHk-65" value="" style="shape=tableRow;horizontal=0;startSize=0;swimlaneHead=0;swimlaneBody=0;strokeColor=inherit;top=0;left=0;bottom=0;right=0;collapsible=0;dropTarget=0;fillColor=none;points=[[0,0.5],[1,0.5]];portConstraint=eastwest;" parent="f9RRP8ZeH6I90ZZNOrHk-64" vertex="1">
          <mxGeometry width="310" height="45" as="geometry" />
        </mxCell>
        <mxCell id="f9RRP8ZeH6I90ZZNOrHk-66" value="PRETO" style="shape=partialRectangle;html=1;whiteSpace=wrap;connectable=0;strokeColor=inherit;overflow=hidden;fillColor=none;top=0;left=0;bottom=0;right=0;pointerEvents=1;" parent="f9RRP8ZeH6I90ZZNOrHk-65" vertex="1">
          <mxGeometry width="155" height="45" as="geometry">
            <mxRectangle width="155" height="45" as="alternateBounds" />
          </mxGeometry>
        </mxCell>
        <mxCell id="f9RRP8ZeH6I90ZZNOrHk-67" value="GND" style="shape=partialRectangle;html=1;whiteSpace=wrap;connectable=0;strokeColor=inherit;overflow=hidden;fillColor=none;top=0;left=0;bottom=0;right=0;pointerEvents=1;" parent="f9RRP8ZeH6I90ZZNOrHk-65" vertex="1">
          <mxGeometry x="155" width="155" height="45" as="geometry">
            <mxRectangle width="155" height="45" as="alternateBounds" />
          </mxGeometry>
        </mxCell>
        <mxCell id="f9RRP8ZeH6I90ZZNOrHk-68" value="" style="shape=tableRow;horizontal=0;startSize=0;swimlaneHead=0;swimlaneBody=0;strokeColor=inherit;top=0;left=0;bottom=0;right=0;collapsible=0;dropTarget=0;fillColor=none;points=[[0,0.5],[1,0.5]];portConstraint=eastwest;" parent="f9RRP8ZeH6I90ZZNOrHk-64" vertex="1">
          <mxGeometry y="45" width="310" height="45" as="geometry" />
        </mxCell>
        <mxCell id="f9RRP8ZeH6I90ZZNOrHk-69" value="VERMELHO" style="shape=partialRectangle;html=1;whiteSpace=wrap;connectable=0;strokeColor=inherit;overflow=hidden;fillColor=none;top=0;left=0;bottom=0;right=0;pointerEvents=1;" parent="f9RRP8ZeH6I90ZZNOrHk-68" vertex="1">
          <mxGeometry width="155" height="45" as="geometry">
            <mxRectangle width="155" height="45" as="alternateBounds" />
          </mxGeometry>
        </mxCell>
        <mxCell id="f9RRP8ZeH6I90ZZNOrHk-70" value="12V" style="shape=partialRectangle;html=1;whiteSpace=wrap;connectable=0;strokeColor=inherit;overflow=hidden;fillColor=none;top=0;left=0;bottom=0;right=0;pointerEvents=1;" parent="f9RRP8ZeH6I90ZZNOrHk-68" vertex="1">
          <mxGeometry x="155" width="155" height="45" as="geometry">
            <mxRectangle width="155" height="45" as="alternateBounds" />
          </mxGeometry>
        </mxCell>
        <mxCell id="f9RRP8ZeH6I90ZZNOrHk-71" value="" style="shape=tableRow;horizontal=0;startSize=0;swimlaneHead=0;swimlaneBody=0;strokeColor=inherit;top=0;left=0;bottom=0;right=0;collapsible=0;dropTarget=0;fillColor=none;points=[[0,0.5],[1,0.5]];portConstraint=eastwest;" parent="f9RRP8ZeH6I90ZZNOrHk-64" vertex="1">
          <mxGeometry y="90" width="310" height="45" as="geometry" />
        </mxCell>
        <mxCell id="f9RRP8ZeH6I90ZZNOrHk-72" value="ROSA" style="shape=partialRectangle;html=1;whiteSpace=wrap;connectable=0;strokeColor=inherit;overflow=hidden;fillColor=none;top=0;left=0;bottom=0;right=0;pointerEvents=1;" parent="f9RRP8ZeH6I90ZZNOrHk-71" vertex="1">
          <mxGeometry width="155" height="45" as="geometry">
            <mxRectangle width="155" height="45" as="alternateBounds" />
          </mxGeometry>
        </mxCell>
        <mxCell id="f9RRP8ZeH6I90ZZNOrHk-73" value="5V" style="shape=partialRectangle;html=1;whiteSpace=wrap;connectable=0;strokeColor=inherit;overflow=hidden;fillColor=none;top=0;left=0;bottom=0;right=0;pointerEvents=1;" parent="f9RRP8ZeH6I90ZZNOrHk-71" vertex="1">
          <mxGeometry x="155" width="155" height="45" as="geometry">
            <mxRectangle width="155" height="45" as="alternateBounds" />
          </mxGeometry>
        </mxCell>
        <mxCell id="f9RRP8ZeH6I90ZZNOrHk-74" value="" style="shape=tableRow;horizontal=0;startSize=0;swimlaneHead=0;swimlaneBody=0;strokeColor=inherit;top=0;left=0;bottom=0;right=0;collapsible=0;dropTarget=0;fillColor=none;points=[[0,0.5],[1,0.5]];portConstraint=eastwest;" parent="f9RRP8ZeH6I90ZZNOrHk-64" vertex="1">
          <mxGeometry y="135" width="310" height="45" as="geometry" />
        </mxCell>
        <mxCell id="f9RRP8ZeH6I90ZZNOrHk-75" value="AMARELO" style="shape=partialRectangle;html=1;whiteSpace=wrap;connectable=0;strokeColor=inherit;overflow=hidden;fillColor=none;top=0;left=0;bottom=0;right=0;pointerEvents=1;" parent="f9RRP8ZeH6I90ZZNOrHk-74" vertex="1">
          <mxGeometry width="155" height="45" as="geometry">
            <mxRectangle width="155" height="45" as="alternateBounds" />
          </mxGeometry>
        </mxCell>
        <mxCell id="f9RRP8ZeH6I90ZZNOrHk-76" value="SINAL DE SENSOR" style="shape=partialRectangle;html=1;whiteSpace=wrap;connectable=0;strokeColor=inherit;overflow=hidden;fillColor=none;top=0;left=0;bottom=0;right=0;pointerEvents=1;" parent="f9RRP8ZeH6I90ZZNOrHk-74" vertex="1">
          <mxGeometry x="155" width="155" height="45" as="geometry">
            <mxRectangle width="155" height="45" as="alternateBounds" />
          </mxGeometry>
        </mxCell>
        <mxCell id="f9RRP8ZeH6I90ZZNOrHk-77" value="" style="shape=tableRow;horizontal=0;startSize=0;swimlaneHead=0;swimlaneBody=0;strokeColor=inherit;top=0;left=0;bottom=0;right=0;collapsible=0;dropTarget=0;fillColor=none;points=[[0,0.5],[1,0.5]];portConstraint=eastwest;" parent="f9RRP8ZeH6I90ZZNOrHk-64" vertex="1">
          <mxGeometry y="180" width="310" height="45" as="geometry" />
        </mxCell>
        <mxCell id="f9RRP8ZeH6I90ZZNOrHk-78" value="AZUL" style="shape=partialRectangle;html=1;whiteSpace=wrap;connectable=0;strokeColor=inherit;overflow=hidden;fillColor=none;top=0;left=0;bottom=0;right=0;pointerEvents=1;" parent="f9RRP8ZeH6I90ZZNOrHk-77" vertex="1">
          <mxGeometry width="155" height="45" as="geometry">
            <mxRectangle width="155" height="45" as="alternateBounds" />
          </mxGeometry>
        </mxCell>
        <mxCell id="f9RRP8ZeH6I90ZZNOrHk-79" value="S_GND" style="shape=partialRectangle;html=1;whiteSpace=wrap;connectable=0;strokeColor=inherit;overflow=hidden;fillColor=none;top=0;left=0;bottom=0;right=0;pointerEvents=1;" parent="f9RRP8ZeH6I90ZZNOrHk-77" vertex="1">
          <mxGeometry x="155" width="155" height="45" as="geometry">
            <mxRectangle width="155" height="45" as="alternateBounds" />
          </mxGeometry>
        </mxCell>
        <mxCell id="f9RRP8ZeH6I90ZZNOrHk-80" value="" style="shape=tableRow;horizontal=0;startSize=0;swimlaneHead=0;swimlaneBody=0;strokeColor=inherit;top=0;left=0;bottom=0;right=0;collapsible=0;dropTarget=0;fillColor=none;points=[[0,0.5],[1,0.5]];portConstraint=eastwest;" parent="f9RRP8ZeH6I90ZZNOrHk-64" vertex="1">
          <mxGeometry y="225" width="310" height="45" as="geometry" />
        </mxCell>
        <mxCell id="f9RRP8ZeH6I90ZZNOrHk-81" value="LARANJA" style="shape=partialRectangle;html=1;whiteSpace=wrap;connectable=0;strokeColor=inherit;overflow=hidden;fillColor=none;top=0;left=0;bottom=0;right=0;pointerEvents=1;" parent="f9RRP8ZeH6I90ZZNOrHk-80" vertex="1">
          <mxGeometry width="155" height="45" as="geometry">
            <mxRectangle width="155" height="45" as="alternateBounds" />
          </mxGeometry>
        </mxCell>
        <mxCell id="f9RRP8ZeH6I90ZZNOrHk-82" value="CAN_HIGH" style="shape=partialRectangle;html=1;whiteSpace=wrap;connectable=0;strokeColor=inherit;overflow=hidden;fillColor=none;top=0;left=0;bottom=0;right=0;pointerEvents=1;" parent="f9RRP8ZeH6I90ZZNOrHk-80" vertex="1">
          <mxGeometry x="155" width="155" height="45" as="geometry">
            <mxRectangle width="155" height="45" as="alternateBounds" />
          </mxGeometry>
        </mxCell>
        <mxCell id="f9RRP8ZeH6I90ZZNOrHk-83" value="" style="shape=tableRow;horizontal=0;startSize=0;swimlaneHead=0;swimlaneBody=0;strokeColor=inherit;top=0;left=0;bottom=0;right=0;collapsible=0;dropTarget=0;fillColor=none;points=[[0,0.5],[1,0.5]];portConstraint=eastwest;" parent="f9RRP8ZeH6I90ZZNOrHk-64" vertex="1">
          <mxGeometry y="270" width="310" height="45" as="geometry" />
        </mxCell>
        <mxCell id="f9RRP8ZeH6I90ZZNOrHk-84" value="VERDE" style="shape=partialRectangle;html=1;whiteSpace=wrap;connectable=0;strokeColor=inherit;overflow=hidden;fillColor=none;top=0;left=0;bottom=0;right=0;pointerEvents=1;" parent="f9RRP8ZeH6I90ZZNOrHk-83" vertex="1">
          <mxGeometry width="155" height="45" as="geometry">
            <mxRectangle width="155" height="45" as="alternateBounds" />
          </mxGeometry>
        </mxCell>
        <mxCell id="f9RRP8ZeH6I90ZZNOrHk-85" value="CAN_LOW" style="shape=partialRectangle;html=1;whiteSpace=wrap;connectable=0;strokeColor=inherit;overflow=hidden;fillColor=none;top=0;left=0;bottom=0;right=0;pointerEvents=1;" parent="f9RRP8ZeH6I90ZZNOrHk-83" vertex="1">
          <mxGeometry x="155" width="155" height="45" as="geometry">
            <mxRectangle width="155" height="45" as="alternateBounds" />
          </mxGeometry>
        </mxCell>
        <mxCell id="f9RRP8ZeH6I90ZZNOrHk-86" value="" style="shape=tableRow;horizontal=0;startSize=0;swimlaneHead=0;swimlaneBody=0;strokeColor=inherit;top=0;left=0;bottom=0;right=0;collapsible=0;dropTarget=0;fillColor=none;points=[[0,0.5],[1,0.5]];portConstraint=eastwest;" parent="f9RRP8ZeH6I90ZZNOrHk-64" vertex="1">
          <mxGeometry y="315" width="310" height="45" as="geometry" />
        </mxCell>
        <mxCell id="f9RRP8ZeH6I90ZZNOrHk-87" value="CINZA" style="shape=partialRectangle;html=1;whiteSpace=wrap;connectable=0;strokeColor=inherit;overflow=hidden;fillColor=none;top=0;left=0;bottom=0;right=0;pointerEvents=1;" parent="f9RRP8ZeH6I90ZZNOrHk-86" vertex="1">
          <mxGeometry width="155" height="45" as="geometry">
            <mxRectangle width="155" height="45" as="alternateBounds" />
          </mxGeometry>
        </mxCell>
        <mxCell id="f9RRP8ZeH6I90ZZNOrHk-88" value="CKP-" style="shape=partialRectangle;html=1;whiteSpace=wrap;connectable=0;strokeColor=inherit;overflow=hidden;fillColor=none;top=0;left=0;bottom=0;right=0;pointerEvents=1;" parent="f9RRP8ZeH6I90ZZNOrHk-86" vertex="1">
          <mxGeometry x="155" width="155" height="45" as="geometry">
            <mxRectangle width="155" height="45" as="alternateBounds" />
          </mxGeometry>
        </mxCell>
        <mxCell id="f9RRP8ZeH6I90ZZNOrHk-89" value="" style="shape=tableRow;horizontal=0;startSize=0;swimlaneHead=0;swimlaneBody=0;strokeColor=inherit;top=0;left=0;bottom=0;right=0;collapsible=0;dropTarget=0;fillColor=none;points=[[0,0.5],[1,0.5]];portConstraint=eastwest;" parent="f9RRP8ZeH6I90ZZNOrHk-64" vertex="1">
          <mxGeometry y="360" width="310" height="45" as="geometry" />
        </mxCell>
        <mxCell id="f9RRP8ZeH6I90ZZNOrHk-90" value="CIANO" style="shape=partialRectangle;html=1;whiteSpace=wrap;connectable=0;strokeColor=inherit;overflow=hidden;fillColor=none;top=0;left=0;bottom=0;right=0;pointerEvents=1;" parent="f9RRP8ZeH6I90ZZNOrHk-89" vertex="1">
          <mxGeometry width="155" height="45" as="geometry">
            <mxRectangle width="155" height="45" as="alternateBounds" />
          </mxGeometry>
        </mxCell>
        <mxCell id="f9RRP8ZeH6I90ZZNOrHk-91" value="CKP+" style="shape=partialRectangle;html=1;whiteSpace=wrap;connectable=0;strokeColor=inherit;overflow=hidden;fillColor=none;top=0;left=0;bottom=0;right=0;pointerEvents=1;" parent="f9RRP8ZeH6I90ZZNOrHk-89" vertex="1">
          <mxGeometry x="155" width="155" height="45" as="geometry">
            <mxRectangle width="155" height="45" as="alternateBounds" />
          </mxGeometry>
        </mxCell>
        <mxCell id="f9RRP8ZeH6I90ZZNOrHk-104" style="shape=tableRow;horizontal=0;startSize=0;swimlaneHead=0;swimlaneBody=0;strokeColor=inherit;top=0;left=0;bottom=0;right=0;collapsible=0;dropTarget=0;fillColor=none;points=[[0,0.5],[1,0.5]];portConstraint=eastwest;" parent="f9RRP8ZeH6I90ZZNOrHk-64" vertex="1">
          <mxGeometry y="405" width="310" height="45" as="geometry" />
        </mxCell>
        <mxCell id="f9RRP8ZeH6I90ZZNOrHk-105" value="RELUTANCIA VARIAVEL" style="shape=partialRectangle;html=1;whiteSpace=wrap;connectable=0;strokeColor=#6c8ebf;overflow=hidden;fillColor=#dae8fc;top=0;left=0;bottom=0;right=0;pointerEvents=1;" parent="f9RRP8ZeH6I90ZZNOrHk-104" vertex="1">
          <mxGeometry width="155" height="45" as="geometry">
            <mxRectangle width="155" height="45" as="alternateBounds" />
          </mxGeometry>
        </mxCell>
        <mxCell id="f9RRP8ZeH6I90ZZNOrHk-106" value="SEM ALIMENTAÇAO, GERA POR INDUÇAO, ALTA DURABILIDADE" style="shape=partialRectangle;html=1;whiteSpace=wrap;connectable=0;strokeColor=#6c8ebf;overflow=hidden;fillColor=#dae8fc;top=0;left=0;bottom=0;right=0;pointerEvents=1;" parent="f9RRP8ZeH6I90ZZNOrHk-104" vertex="1">
          <mxGeometry x="155" width="155" height="45" as="geometry">
            <mxRectangle width="155" height="45" as="alternateBounds" />
          </mxGeometry>
        </mxCell>
        <mxCell id="f9RRP8ZeH6I90ZZNOrHk-107" value="" style="endArrow=classic;html=1;rounded=0;exitX=0.596;exitY=0.994;exitDx=0;exitDy=0;exitPerimeter=0;entryX=0.695;entryY=0;entryDx=0;entryDy=0;entryPerimeter=0;strokeColor=#00FFFF;" parent="1" source="Dd4lVPITV6rcG0dg7MI0-11" target="Dd4lVPITV6rcG0dg7MI0-10" edge="1">
          <mxGeometry width="50" height="50" relative="1" as="geometry">
            <mxPoint x="200" y="720" as="sourcePoint" />
            <mxPoint x="250" y="670" as="targetPoint" />
          </mxGeometry>
        </mxCell>
        <mxCell id="f9RRP8ZeH6I90ZZNOrHk-108" value="" style="endArrow=classic;html=1;rounded=0;exitX=0.63;exitY=0.986;exitDx=0;exitDy=0;exitPerimeter=0;entryX=0.767;entryY=0.009;entryDx=0;entryDy=0;entryPerimeter=0;strokeColor=#33FFFF;" parent="1" source="Dd4lVPITV6rcG0dg7MI0-11" target="Dd4lVPITV6rcG0dg7MI0-10" edge="1">
          <mxGeometry width="50" height="50" relative="1" as="geometry">
            <mxPoint x="379" y="720" as="sourcePoint" />
            <mxPoint x="379" y="837" as="targetPoint" />
          </mxGeometry>
        </mxCell>
        <mxCell id="f9RRP8ZeH6I90ZZNOrHk-109" value="" style="endArrow=none;html=1;rounded=0;exitX=0.656;exitY=1.002;exitDx=0;exitDy=0;exitPerimeter=0;" parent="1" source="Dd4lVPITV6rcG0dg7MI0-10" edge="1">
          <mxGeometry width="50" height="50" relative="1" as="geometry">
            <mxPoint x="350" y="940" as="sourcePoint" />
            <mxPoint x="920" y="150" as="targetPoint" />
            <Array as="points">
              <mxPoint x="360" y="1040" />
              <mxPoint x="1060" y="1040" />
              <mxPoint x="1050" y="90" />
              <mxPoint x="920" y="90" />
            </Array>
          </mxGeometry>
        </mxCell>
        <mxCell id="f9RRP8ZeH6I90ZZNOrHk-110" value="" style="endArrow=none;html=1;rounded=0;" parent="1" edge="1">
          <mxGeometry width="50" height="50" relative="1" as="geometry">
            <mxPoint x="415" y="240" as="sourcePoint" />
            <mxPoint x="920" y="150" as="targetPoint" />
            <Array as="points">
              <mxPoint x="520" y="240" />
              <mxPoint x="520" y="150" />
            </Array>
          </mxGeometry>
        </mxCell>
        <mxCell id="BlX_RY-2Irji_awNwt1t-1" value="" style="endArrow=none;html=1;rounded=0;exitX=0.5;exitY=0;exitDx=0;exitDy=0;exitPerimeter=0;" parent="1" source="Dd4lVPITV6rcG0dg7MI0-49" edge="1">
          <mxGeometry width="50" height="50" relative="1" as="geometry">
            <mxPoint x="-130" y="840" as="sourcePoint" />
            <mxPoint x="-80" y="850" as="targetPoint" />
          </mxGeometry>
        </mxCell>
        <mxCell id="BlX_RY-2Irji_awNwt1t-2" value="EPC" style="rounded=0;whiteSpace=wrap;html=1;" parent="1" vertex="1">
          <mxGeometry x="-240" y="780" width="80" height="40" as="geometry" />
        </mxCell>
        <mxCell id="BlX_RY-2Irji_awNwt1t-4" value="" style="endArrow=classic;startArrow=classic;html=1;rounded=0;strokeWidth=2;entryX=0;entryY=0.75;entryDx=0;entryDy=0;strokeColor=#00CC00;" parent="1" edge="1">
          <mxGeometry width="50" height="50" relative="1" as="geometry">
            <mxPoint x="-280" y="810" as="sourcePoint" />
            <mxPoint x="-240" y="810" as="targetPoint" />
            <Array as="points" />
          </mxGeometry>
        </mxCell>
        <mxCell id="BlX_RY-2Irji_awNwt1t-5" value="" style="endArrow=classic;startArrow=classic;html=1;rounded=0;entryX=0;entryY=0.25;entryDx=0;entryDy=0;strokeWidth=2;strokeColor=#FF8000;" parent="1" edge="1">
          <mxGeometry width="50" height="50" relative="1" as="geometry">
            <mxPoint x="-320" y="790" as="sourcePoint" />
            <mxPoint x="-240" y="790" as="targetPoint" />
            <Array as="points" />
          </mxGeometry>
        </mxCell>
        <mxCell id="E4AzuqyQpeiPUK6PCbu9-11" value="EJT1" style="rounded=0;whiteSpace=wrap;html=1;fillColor=#d5e8d4;strokeColor=#82b366;" parent="1" vertex="1">
          <mxGeometry x="-230" y="602.5" width="70" height="30" as="geometry" />
        </mxCell>
        <mxCell id="E4AzuqyQpeiPUK6PCbu9-12" value="EJT2" style="rounded=0;whiteSpace=wrap;html=1;fillColor=#d5e8d4;strokeColor=#82b366;" parent="1" vertex="1">
          <mxGeometry x="-230" y="640" width="70" height="30" as="geometry" />
        </mxCell>
        <mxCell id="znyflTCA9Cc_OiiJNhQR-2" value="Flex" style="rounded=0;whiteSpace=wrap;html=1;fillColor=#d5e8d4;strokeColor=#82b366;" vertex="1" parent="1">
          <mxGeometry x="680" y="720" width="80" height="40" as="geometry" />
        </mxCell>
        <mxCell id="znyflTCA9Cc_OiiJNhQR-6" value="EJT3" style="rounded=0;whiteSpace=wrap;html=1;fillColor=#d5e8d4;strokeColor=#82b366;" vertex="1" parent="1">
          <mxGeometry x="-230" y="680" width="70" height="30" as="geometry" />
        </mxCell>
        <mxCell id="znyflTCA9Cc_OiiJNhQR-7" value="EJT4" style="rounded=0;whiteSpace=wrap;html=1;fillColor=#f8cecc;strokeColor=#b85450;" vertex="1" parent="1">
          <mxGeometry x="-230" y="720" width="70" height="30" as="geometry" />
        </mxCell>
        <mxCell id="znyflTCA9Cc_OiiJNhQR-15" value="" style="endArrow=classic;html=1;rounded=0;exitX=0.25;exitY=1;exitDx=0;exitDy=0;entryX=1;entryY=1;entryDx=0;entryDy=0;strokeColor=#FF0000;" edge="1" parent="1" source="Dd4lVPITV6rcG0dg7MI0-7" target="Dd4lVPITV6rcG0dg7MI0-30">
          <mxGeometry width="50" height="50" relative="1" as="geometry">
            <mxPoint y="400" as="sourcePoint" />
            <mxPoint x="50" y="350" as="targetPoint" />
            <Array as="points">
              <mxPoint x="276" y="300" />
              <mxPoint y="300" />
              <mxPoint y="880" />
            </Array>
          </mxGeometry>
        </mxCell>
        <mxCell id="znyflTCA9Cc_OiiJNhQR-16" value="" style="endArrow=classic;html=1;rounded=0;entryX=1;entryY=1;entryDx=0;entryDy=0;strokeColor=#FF0000;" edge="1" parent="1" target="znyflTCA9Cc_OiiJNhQR-6">
          <mxGeometry width="50" height="50" relative="1" as="geometry">
            <mxPoint y="710" as="sourcePoint" />
            <mxPoint x="90" y="630" as="targetPoint" />
          </mxGeometry>
        </mxCell>
        <mxCell id="znyflTCA9Cc_OiiJNhQR-17" value="" style="endArrow=classic;html=1;rounded=0;entryX=1;entryY=1;entryDx=0;entryDy=0;strokeColor=#FF0000;" edge="1" parent="1">
          <mxGeometry width="50" height="50" relative="1" as="geometry">
            <mxPoint y="670" as="sourcePoint" />
            <mxPoint x="-160" y="670" as="targetPoint" />
          </mxGeometry>
        </mxCell>
        <mxCell id="znyflTCA9Cc_OiiJNhQR-18" value="" style="endArrow=classic;html=1;rounded=0;entryX=1;entryY=1;entryDx=0;entryDy=0;strokeColor=#FF0000;" edge="1" parent="1">
          <mxGeometry width="50" height="50" relative="1" as="geometry">
            <mxPoint y="631.94" as="sourcePoint" />
            <mxPoint x="-160" y="631.94" as="targetPoint" />
          </mxGeometry>
        </mxCell>
        <mxCell id="znyflTCA9Cc_OiiJNhQR-20" value="" style="endArrow=classic;html=1;rounded=0;entryX=1;entryY=1;entryDx=0;entryDy=0;strokeColor=#FF0000;" edge="1" parent="1">
          <mxGeometry width="50" height="50" relative="1" as="geometry">
            <mxPoint y="549" as="sourcePoint" />
            <mxPoint x="-160" y="549" as="targetPoint" />
          </mxGeometry>
        </mxCell>
        <mxCell id="znyflTCA9Cc_OiiJNhQR-21" value="" style="endArrow=classic;html=1;rounded=0;entryX=1;entryY=1;entryDx=0;entryDy=0;strokeColor=#FF0000;" edge="1" parent="1">
          <mxGeometry width="50" height="50" relative="1" as="geometry">
            <mxPoint y="510" as="sourcePoint" />
            <mxPoint x="-160" y="510" as="targetPoint" />
          </mxGeometry>
        </mxCell>
        <mxCell id="znyflTCA9Cc_OiiJNhQR-22" value="" style="endArrow=classic;html=1;rounded=0;entryX=1;entryY=1;entryDx=0;entryDy=0;strokeColor=#FF0000;" edge="1" parent="1">
          <mxGeometry width="50" height="50" relative="1" as="geometry">
            <mxPoint y="470" as="sourcePoint" />
            <mxPoint x="-160" y="470" as="targetPoint" />
          </mxGeometry>
        </mxCell>
        <mxCell id="znyflTCA9Cc_OiiJNhQR-23" value="" style="endArrow=classic;html=1;rounded=0;entryX=1;entryY=1;entryDx=0;entryDy=0;strokeColor=#FF0000;" edge="1" parent="1">
          <mxGeometry width="50" height="50" relative="1" as="geometry">
            <mxPoint y="430" as="sourcePoint" />
            <mxPoint x="-160" y="430" as="targetPoint" />
          </mxGeometry>
        </mxCell>
        <mxCell id="znyflTCA9Cc_OiiJNhQR-24" value="" style="endArrow=classic;html=1;rounded=0;entryX=1;entryY=1;entryDx=0;entryDy=0;strokeColor=#FF0000;" edge="1" parent="1">
          <mxGeometry width="50" height="50" relative="1" as="geometry">
            <mxPoint y="370" as="sourcePoint" />
            <mxPoint x="-160" y="370" as="targetPoint" />
          </mxGeometry>
        </mxCell>
        <mxCell id="znyflTCA9Cc_OiiJNhQR-26" value="" style="endArrow=classic;html=1;rounded=0;exitX=0.75;exitY=1;exitDx=0;exitDy=0;strokeColor=#FF0000;" edge="1" parent="1" source="Dd4lVPITV6rcG0dg7MI0-7">
          <mxGeometry width="50" height="50" relative="1" as="geometry">
            <mxPoint x="500" y="460" as="sourcePoint" />
            <mxPoint x="679" y="760" as="targetPoint" />
            <Array as="points">
              <mxPoint x="369" y="300" />
              <mxPoint x="640" y="300" />
              <mxPoint x="640" y="760" />
            </Array>
          </mxGeometry>
        </mxCell>
        <mxCell id="znyflTCA9Cc_OiiJNhQR-27" value="" style="endArrow=classic;html=1;rounded=0;entryX=0;entryY=1;entryDx=0;entryDy=0;strokeColor=#FF0000;" edge="1" parent="1" target="Dd4lVPITV6rcG0dg7MI0-38">
          <mxGeometry width="50" height="50" relative="1" as="geometry">
            <mxPoint x="640" y="700" as="sourcePoint" />
            <mxPoint x="550" y="630" as="targetPoint" />
            <Array as="points">
              <mxPoint x="660" y="700" />
            </Array>
          </mxGeometry>
        </mxCell>
        <mxCell id="znyflTCA9Cc_OiiJNhQR-30" value="" style="endArrow=classic;html=1;rounded=0;strokeColor=#FF0000;" edge="1" parent="1">
          <mxGeometry width="50" height="50" relative="1" as="geometry">
            <mxPoint x="640" y="400" as="sourcePoint" />
            <mxPoint x="690" y="400" as="targetPoint" />
          </mxGeometry>
        </mxCell>
        <mxCell id="znyflTCA9Cc_OiiJNhQR-32" value="" style="endArrow=classic;html=1;rounded=0;exitX=0;exitY=0.511;exitDx=0;exitDy=0;entryX=1;entryY=0.75;entryDx=0;entryDy=0;strokeColor=#FF00FF;exitPerimeter=0;" edge="1" parent="1" source="Dd4lVPITV6rcG0dg7MI0-11" target="Dd4lVPITV6rcG0dg7MI0-23">
          <mxGeometry width="50" height="50" relative="1" as="geometry">
            <mxPoint x="110" y="560" as="sourcePoint" />
            <mxPoint x="160" y="510" as="targetPoint" />
            <Array as="points">
              <mxPoint x="40" y="586" />
              <mxPoint x="40" y="418" />
            </Array>
          </mxGeometry>
        </mxCell>
        <mxCell id="znyflTCA9Cc_OiiJNhQR-34" value="" style="endArrow=classic;html=1;rounded=0;entryX=1;entryY=0.75;entryDx=0;entryDy=0;strokeColor=#FF00FF;" edge="1" parent="1" target="Dd4lVPITV6rcG0dg7MI0-25">
          <mxGeometry width="50" height="50" relative="1" as="geometry">
            <mxPoint x="40" y="503" as="sourcePoint" />
            <mxPoint x="130" y="510" as="targetPoint" />
          </mxGeometry>
        </mxCell>
        <mxCell id="znyflTCA9Cc_OiiJNhQR-35" value="" style="endArrow=classic;html=1;rounded=0;entryX=1;entryY=0.75;entryDx=0;entryDy=0;strokeColor=#FF00FF;" edge="1" parent="1">
          <mxGeometry width="50" height="50" relative="1" as="geometry">
            <mxPoint x="40" y="460" as="sourcePoint" />
            <mxPoint x="-160" y="460" as="targetPoint" />
          </mxGeometry>
        </mxCell>
        <mxCell id="znyflTCA9Cc_OiiJNhQR-36" value="" style="endArrow=classic;html=1;rounded=0;entryX=1;entryY=0.75;entryDx=0;entryDy=0;strokeColor=#FF00FF;" edge="1" parent="1">
          <mxGeometry width="50" height="50" relative="1" as="geometry">
            <mxPoint x="40" y="540" as="sourcePoint" />
            <mxPoint x="-160" y="540" as="targetPoint" />
          </mxGeometry>
        </mxCell>
        <mxCell id="znyflTCA9Cc_OiiJNhQR-38" value="" style="endArrow=none;html=1;rounded=0;strokeColor=#FF00FF;" edge="1" parent="1">
          <mxGeometry width="50" height="50" relative="1" as="geometry">
            <mxPoint x="40" y="580" as="sourcePoint" />
            <mxPoint x="40" y="700" as="targetPoint" />
          </mxGeometry>
        </mxCell>
        <mxCell id="znyflTCA9Cc_OiiJNhQR-39" value="" style="endArrow=classic;html=1;rounded=0;entryX=1;entryY=0.75;entryDx=0;entryDy=0;strokeColor=#FF00FF;" edge="1" parent="1">
          <mxGeometry width="50" height="50" relative="1" as="geometry">
            <mxPoint x="40" y="700" as="sourcePoint" />
            <mxPoint x="-160" y="700" as="targetPoint" />
          </mxGeometry>
        </mxCell>
        <mxCell id="znyflTCA9Cc_OiiJNhQR-40" value="" style="endArrow=classic;html=1;rounded=0;entryX=1;entryY=0.75;entryDx=0;entryDy=0;strokeColor=#FF00FF;" edge="1" parent="1">
          <mxGeometry width="50" height="50" relative="1" as="geometry">
            <mxPoint x="40" y="660" as="sourcePoint" />
            <mxPoint x="-160" y="660" as="targetPoint" />
          </mxGeometry>
        </mxCell>
        <mxCell id="znyflTCA9Cc_OiiJNhQR-41" value="" style="endArrow=classic;html=1;rounded=0;entryX=1;entryY=0.75;entryDx=0;entryDy=0;strokeColor=#FF00FF;" edge="1" parent="1">
          <mxGeometry width="50" height="50" relative="1" as="geometry">
            <mxPoint x="40" y="620" as="sourcePoint" />
            <mxPoint x="-160" y="620" as="targetPoint" />
          </mxGeometry>
        </mxCell>
        <mxCell id="znyflTCA9Cc_OiiJNhQR-43" value="" style="endArrow=classic;html=1;rounded=0;exitX=1;exitY=1;exitDx=0;exitDy=0;entryX=0.072;entryY=0.242;entryDx=0;entryDy=0;entryPerimeter=0;strokeColor=#33FFFF;" edge="1" parent="1" source="Dd4lVPITV6rcG0dg7MI0-21" target="Dd4lVPITV6rcG0dg7MI0-11">
          <mxGeometry width="50" height="50" relative="1" as="geometry">
            <mxPoint x="110" y="440" as="sourcePoint" />
            <mxPoint x="160" y="390" as="targetPoint" />
            <Array as="points">
              <mxPoint x="80" y="330" />
              <mxPoint x="80" y="509" />
            </Array>
          </mxGeometry>
        </mxCell>
        <mxCell id="znyflTCA9Cc_OiiJNhQR-44" value="" style="endArrow=classic;html=1;rounded=0;exitX=1.013;exitY=0.676;exitDx=0;exitDy=0;entryX=0.072;entryY=0.242;entryDx=0;entryDy=0;entryPerimeter=0;exitPerimeter=0;strokeColor=#33FFFF;" edge="1" parent="1" source="Dd4lVPITV6rcG0dg7MI0-21">
          <mxGeometry width="50" height="50" relative="1" as="geometry">
            <mxPoint x="-150" y="320" as="sourcePoint" />
            <mxPoint x="134" y="499" as="targetPoint" />
            <Array as="points">
              <mxPoint x="90" y="320" />
              <mxPoint x="90" y="499" />
            </Array>
          </mxGeometry>
        </mxCell>
        <mxCell id="znyflTCA9Cc_OiiJNhQR-45" value="" style="endArrow=classic;html=1;rounded=0;exitX=1;exitY=0.5;exitDx=0;exitDy=0;entryX=0.045;entryY=0.314;entryDx=0;entryDy=0;entryPerimeter=0;strokeColor=#CCCC00;" edge="1" parent="1" source="Dd4lVPITV6rcG0dg7MI0-22" target="Dd4lVPITV6rcG0dg7MI0-11">
          <mxGeometry width="50" height="50" relative="1" as="geometry">
            <mxPoint x="-10" y="470" as="sourcePoint" />
            <mxPoint x="40" y="420" as="targetPoint" />
            <Array as="points">
              <mxPoint x="-80" y="355" />
              <mxPoint x="-80" y="530" />
            </Array>
          </mxGeometry>
        </mxCell>
        <mxCell id="znyflTCA9Cc_OiiJNhQR-47" value="" style="endArrow=classic;html=1;rounded=0;exitX=1;exitY=0.5;exitDx=0;exitDy=0;entryX=0;entryY=0.487;entryDx=0;entryDy=0;entryPerimeter=0;strokeColor=#CCCC00;" edge="1" parent="1" source="Dd4lVPITV6rcG0dg7MI0-23" target="Dd4lVPITV6rcG0dg7MI0-11">
          <mxGeometry width="50" height="50" relative="1" as="geometry">
            <mxPoint x="-10" y="470" as="sourcePoint" />
            <mxPoint x="40" y="420" as="targetPoint" />
            <Array as="points">
              <mxPoint x="-120" y="405" />
              <mxPoint x="-120" y="580" />
            </Array>
          </mxGeometry>
        </mxCell>
        <mxCell id="znyflTCA9Cc_OiiJNhQR-51" value="" style="endArrow=classic;html=1;rounded=0;entryX=1;entryY=1;entryDx=0;entryDy=0;strokeColor=#FF0000;" edge="1" parent="1">
          <mxGeometry width="50" height="50" relative="1" as="geometry">
            <mxPoint y="750" as="sourcePoint" />
            <mxPoint x="-160" y="750" as="targetPoint" />
          </mxGeometry>
        </mxCell>
        <mxCell id="znyflTCA9Cc_OiiJNhQR-55" value="" style="endArrow=classic;html=1;rounded=0;exitX=1.005;exitY=0.404;exitDx=0;exitDy=0;entryX=0.004;entryY=0.459;entryDx=0;entryDy=0;entryPerimeter=0;strokeColor=#CCCC00;exitPerimeter=0;" edge="1" parent="1" source="Dd4lVPITV6rcG0dg7MI0-23" target="Dd4lVPITV6rcG0dg7MI0-11">
          <mxGeometry width="50" height="50" relative="1" as="geometry">
            <mxPoint x="-160" y="397.5" as="sourcePoint" />
            <mxPoint x="91" y="592.5" as="targetPoint" />
            <Array as="points">
              <mxPoint x="-110" y="400" />
              <mxPoint x="-110" y="570" />
            </Array>
          </mxGeometry>
        </mxCell>
        <mxCell id="znyflTCA9Cc_OiiJNhQR-56" value="" style="endArrow=classic;html=1;rounded=0;exitX=1;exitY=0.25;exitDx=0;exitDy=0;entryX=0.75;entryY=0;entryDx=0;entryDy=0;strokeColor=#CCCC00;" edge="1" parent="1" source="Dd4lVPITV6rcG0dg7MI0-23" target="Dd4lVPITV6rcG0dg7MI0-30">
          <mxGeometry width="50" height="50" relative="1" as="geometry">
            <mxPoint x="-260" y="410" as="sourcePoint" />
            <mxPoint x="-210" y="360" as="targetPoint" />
            <Array as="points">
              <mxPoint x="-100" y="393" />
              <mxPoint x="-100" y="830" />
              <mxPoint x="-180" y="830" />
            </Array>
          </mxGeometry>
        </mxCell>
        <mxCell id="znyflTCA9Cc_OiiJNhQR-57" value="" style="endArrow=classic;html=1;rounded=0;exitX=1.01;exitY=0.337;exitDx=0;exitDy=0;entryX=0.009;entryY=0.423;entryDx=0;entryDy=0;entryPerimeter=0;strokeColor=#CCCC00;exitPerimeter=0;" edge="1" parent="1" source="Dd4lVPITV6rcG0dg7MI0-24" target="Dd4lVPITV6rcG0dg7MI0-11">
          <mxGeometry width="50" height="50" relative="1" as="geometry">
            <mxPoint x="-160" y="445" as="sourcePoint" />
            <mxPoint x="90" y="660" as="targetPoint" />
            <Array as="points">
              <mxPoint x="-90" y="450" />
              <mxPoint x="-90" y="560" />
            </Array>
          </mxGeometry>
        </mxCell>
        <mxCell id="znyflTCA9Cc_OiiJNhQR-58" value="" style="endArrow=classic;html=1;rounded=0;exitX=1;exitY=0.5;exitDx=0;exitDy=0;entryX=0.005;entryY=0.561;entryDx=0;entryDy=0;entryPerimeter=0;strokeColor=#CCCC00;" edge="1" parent="1" source="Dd4lVPITV6rcG0dg7MI0-25" target="Dd4lVPITV6rcG0dg7MI0-11">
          <mxGeometry width="50" height="50" relative="1" as="geometry">
            <mxPoint x="-140" y="540" as="sourcePoint" />
            <mxPoint y="560" as="targetPoint" />
            <Array as="points">
              <mxPoint x="-130" y="495" />
              <mxPoint x="-130" y="600" />
            </Array>
          </mxGeometry>
        </mxCell>
        <mxCell id="znyflTCA9Cc_OiiJNhQR-59" value="" style="endArrow=classic;html=1;rounded=0;exitX=1;exitY=0.5;exitDx=0;exitDy=0;entryX=0.028;entryY=0.334;entryDx=0;entryDy=0;entryPerimeter=0;strokeColor=#CCCC00;" edge="1" parent="1" source="Dd4lVPITV6rcG0dg7MI0-26" target="Dd4lVPITV6rcG0dg7MI0-11">
          <mxGeometry width="50" height="50" relative="1" as="geometry">
            <mxPoint x="-70" y="580" as="sourcePoint" />
            <mxPoint x="-20" y="530" as="targetPoint" />
          </mxGeometry>
        </mxCell>
        <mxCell id="znyflTCA9Cc_OiiJNhQR-60" value="" style="endArrow=classic;html=1;rounded=0;exitX=1;exitY=0.321;exitDx=0;exitDy=0;exitPerimeter=0;entryX=0.011;entryY=0.604;entryDx=0;entryDy=0;entryPerimeter=0;strokeColor=#CCCC00;" edge="1" parent="1" source="E4AzuqyQpeiPUK6PCbu9-11" target="Dd4lVPITV6rcG0dg7MI0-11">
          <mxGeometry width="50" height="50" relative="1" as="geometry">
            <mxPoint x="-120" y="690" as="sourcePoint" />
            <mxPoint x="-70" y="640" as="targetPoint" />
          </mxGeometry>
        </mxCell>
        <mxCell id="znyflTCA9Cc_OiiJNhQR-61" value="" style="endArrow=classic;html=1;rounded=0;exitX=0.995;exitY=0.374;exitDx=0;exitDy=0;exitPerimeter=0;entryX=0.02;entryY=0.631;entryDx=0;entryDy=0;entryPerimeter=0;strokeColor=#CCCC00;" edge="1" parent="1" source="E4AzuqyQpeiPUK6PCbu9-12" target="Dd4lVPITV6rcG0dg7MI0-11">
          <mxGeometry width="50" height="50" relative="1" as="geometry">
            <mxPoint x="-120" y="690" as="sourcePoint" />
            <mxPoint x="-70" y="640" as="targetPoint" />
            <Array as="points">
              <mxPoint x="70" y="650" />
              <mxPoint x="70" y="620" />
            </Array>
          </mxGeometry>
        </mxCell>
        <mxCell id="znyflTCA9Cc_OiiJNhQR-62" value="" style="endArrow=classic;html=1;rounded=0;exitX=1.005;exitY=0.409;exitDx=0;exitDy=0;exitPerimeter=0;entryX=0.025;entryY=0.665;entryDx=0;entryDy=0;entryPerimeter=0;strokeColor=#CCCC00;" edge="1" parent="1" source="znyflTCA9Cc_OiiJNhQR-6" target="Dd4lVPITV6rcG0dg7MI0-11">
          <mxGeometry width="50" height="50" relative="1" as="geometry">
            <mxPoint x="-130" y="700" as="sourcePoint" />
            <mxPoint x="50" y="680" as="targetPoint" />
            <Array as="points">
              <mxPoint x="80" y="690" />
              <mxPoint x="80" y="630" />
            </Array>
          </mxGeometry>
        </mxCell>
        <mxCell id="znyflTCA9Cc_OiiJNhQR-63" value="" style="endArrow=none;html=1;rounded=0;exitX=0.014;exitY=0.398;exitDx=0;exitDy=0;exitPerimeter=0;strokeColor=#0000CC;" edge="1" parent="1" source="Dd4lVPITV6rcG0dg7MI0-11">
          <mxGeometry width="50" height="50" relative="1" as="geometry">
            <mxPoint x="-110" y="490" as="sourcePoint" />
            <mxPoint x="-50" y="553" as="targetPoint" />
          </mxGeometry>
        </mxCell>
        <mxCell id="znyflTCA9Cc_OiiJNhQR-64" value="" style="endArrow=none;html=1;rounded=0;strokeColor=#0000CC;" edge="1" parent="1">
          <mxGeometry width="50" height="50" relative="1" as="geometry">
            <mxPoint x="-50" y="680" as="sourcePoint" />
            <mxPoint x="-50" y="340" as="targetPoint" />
          </mxGeometry>
        </mxCell>
        <mxCell id="znyflTCA9Cc_OiiJNhQR-65" value="" style="endArrow=classic;html=1;rounded=0;entryX=1;entryY=0;entryDx=0;entryDy=0;strokeColor=#0000CC;" edge="1" parent="1" target="znyflTCA9Cc_OiiJNhQR-6">
          <mxGeometry width="50" height="50" relative="1" as="geometry">
            <mxPoint x="-50" y="680" as="sourcePoint" />
            <mxPoint x="-40" y="670" as="targetPoint" />
          </mxGeometry>
        </mxCell>
        <mxCell id="znyflTCA9Cc_OiiJNhQR-66" value="" style="endArrow=classic;html=1;rounded=0;entryX=1;entryY=0;entryDx=0;entryDy=0;strokeColor=#0000CC;" edge="1" parent="1">
          <mxGeometry width="50" height="50" relative="1" as="geometry">
            <mxPoint x="-50" y="640" as="sourcePoint" />
            <mxPoint x="-160" y="640" as="targetPoint" />
          </mxGeometry>
        </mxCell>
        <mxCell id="znyflTCA9Cc_OiiJNhQR-67" value="" style="endArrow=classic;html=1;rounded=0;entryX=1;entryY=0;entryDx=0;entryDy=0;strokeColor=#0000CC;" edge="1" parent="1">
          <mxGeometry width="50" height="50" relative="1" as="geometry">
            <mxPoint x="-50" y="602.5" as="sourcePoint" />
            <mxPoint x="-160" y="602.5" as="targetPoint" />
          </mxGeometry>
        </mxCell>
        <mxCell id="znyflTCA9Cc_OiiJNhQR-68" value="" style="endArrow=classic;html=1;rounded=0;entryX=1;entryY=0;entryDx=0;entryDy=0;strokeColor=#0000CC;" edge="1" parent="1">
          <mxGeometry width="50" height="50" relative="1" as="geometry">
            <mxPoint x="-50" y="520" as="sourcePoint" />
            <mxPoint x="-160" y="520" as="targetPoint" />
          </mxGeometry>
        </mxCell>
        <mxCell id="znyflTCA9Cc_OiiJNhQR-69" value="" style="endArrow=classic;html=1;rounded=0;entryX=1;entryY=0;entryDx=0;entryDy=0;strokeColor=#0000CC;" edge="1" parent="1">
          <mxGeometry width="50" height="50" relative="1" as="geometry">
            <mxPoint x="-50" y="480" as="sourcePoint" />
            <mxPoint x="-160" y="480" as="targetPoint" />
          </mxGeometry>
        </mxCell>
        <mxCell id="znyflTCA9Cc_OiiJNhQR-70" value="" style="endArrow=classic;html=1;rounded=0;entryX=1;entryY=0;entryDx=0;entryDy=0;strokeColor=#0000CC;" edge="1" parent="1">
          <mxGeometry width="50" height="50" relative="1" as="geometry">
            <mxPoint x="-50" y="440" as="sourcePoint" />
            <mxPoint x="-160" y="440" as="targetPoint" />
          </mxGeometry>
        </mxCell>
        <mxCell id="znyflTCA9Cc_OiiJNhQR-71" value="" style="endArrow=classic;html=1;rounded=0;entryX=1;entryY=0;entryDx=0;entryDy=0;strokeColor=#0000CC;" edge="1" parent="1">
          <mxGeometry width="50" height="50" relative="1" as="geometry">
            <mxPoint x="-50" y="384.92" as="sourcePoint" />
            <mxPoint x="-160" y="384.92" as="targetPoint" />
          </mxGeometry>
        </mxCell>
        <mxCell id="znyflTCA9Cc_OiiJNhQR-73" value="" style="endArrow=classic;html=1;rounded=0;entryX=1;entryY=0;entryDx=0;entryDy=0;strokeColor=#0000CC;" edge="1" parent="1">
          <mxGeometry width="50" height="50" relative="1" as="geometry">
            <mxPoint x="-50" y="340" as="sourcePoint" />
            <mxPoint x="-160" y="340" as="targetPoint" />
          </mxGeometry>
        </mxCell>
      </root>
    </mxGraphModel>
  </diagram>
</mxfile>
